<?xml version="1.0" encoding="UTF-8" standalone="no"?>
<svg
   width="189.50391pt"
   height="43.5625pt"
   viewBox="0 0 189.50391 43.5625"
   version="1.1"
   id="svg13219"
   xmlns="http://www.w3.org/2000/svg"
   xmlns:svg="http://www.w3.org/2000/svg">
  <defs
     id="defs13127">
    <clipPath
       id="clip-0">
      <path
         clip-rule="nonzero"
         d="M 3.824219,14.199219 H 56.925781 V 41 H 3.824219 Z m 0,0"
         id="path13100" />
    </clipPath>
    <clipPath
       id="clip-1">
      <path
         clip-rule="nonzero"
         d="M 3.824219,17 H 56.925781 V 43.5625 H 3.824219 Z m 0,0"
         id="path13103" />
    </clipPath>
    <clipPath
       id="clip-2">
      <path
         clip-rule="nonzero"
         d="M 3.824219,21 H 14 V 37 H 3.824219 Z m 0,0"
         id="path13106" />
    </clipPath>
    <clipPath
       id="clip-3">
      <path
         clip-rule="nonzero"
         d="m 53,27 h 3.925781 v 4 H 53 Z m 0,0"
         id="path13109" />
    </clipPath>
    <clipPath
       id="clip-4">
      <path
         clip-rule="nonzero"
         d="m 48,21 h 8.925781 V 37 H 48 Z m 0,0"
         id="path13112" />
    </clipPath>
    <clipPath
       id="clip-5">
      <path
         clip-rule="nonzero"
         d="m 68,17 h 33 V 43.5625 H 68 Z m 0,0"
         id="path13115" />
    </clipPath>
    <clipPath
       id="clip-6">
      <path
         clip-rule="nonzero"
         d="m 112,16 h 33 v 27.5625 h -33 z m 0,0"
         id="path13118" />
    </clipPath>
    <clipPath
       id="clip-7">
      <path
         clip-rule="nonzero"
         d="m 139,16 h 34 v 27.5625 h -34 z m 0,0"
         id="path13121" />
    </clipPath>
    <clipPath
       id="clip-8">
      <path
         clip-rule="nonzero"
         d="m 188,25 h 1.50391 v 3 H 188 Z m 0,0"
         id="path13124" />
    </clipPath>
  </defs>
  <path
     fill-rule="nonzero"
     fill="#2ca25f"
     fill-opacity="1"
     d="m 6.066406,28.988281 0.320313,-0.53125 0.324219,-0.527343 0.339843,-0.515625 0.34375,-0.515625 0.363282,-0.5 0.371093,-0.492188 0.382813,-0.488281 0.386719,-0.480469 0.410156,-0.46875 0.410156,-0.460937 0.421875,-0.449219 0.429688,-0.441406 0.445312,-0.433594 0.453125,-0.421875 0.460938,-0.414063 0.464843,-0.398437 0.480469,-0.398438 0.484375,-0.378906 0.492188,-0.371094 0.503906,-0.363281 0.511719,-0.347656 0.519531,-0.335938 0.523437,-0.328125 0.53125,-0.3125 v 20.75 z m 0,0"
     id="path13129" />
  <path
     fill-rule="nonzero"
     fill="#2ca25f"
     fill-opacity="1"
     d="m 6.066406,28.988281 0.320313,0.527344 0.324219,0.527344 0.339843,0.515625 0.34375,0.515625 0.363282,0.503906 0.371093,0.488281 0.382813,0.488282 0.386719,0.480468 0.410156,0.464844 0.410156,0.460938 0.421875,0.457031 0.429688,0.4375 0.445312,0.4375 0.453125,0.417969 0.460938,0.414062 0.464843,0.40625 0.480469,0.386719 0.484375,0.382812 0.492188,0.371094 0.503906,0.363281 0.511719,0.34375 0.519531,0.339844 0.523437,0.324219 0.53125,0.320312 v -20.75 z m 0,0"
     id="path13131" />
  <g
     clip-path="url(#clip-0)"
     id="g13135"
     style="stroke:#ffa86a;stroke-opacity:1">
    <path
       fill="none"
       stroke-width="0.79701"
       stroke-linecap="butt"
       stroke-linejoin="miter"
       stroke="rgb(0%, 0%, 0%)"
       stroke-opacity="1"
       stroke-miterlimit="10"
       d="m 55.167969,-28.988281 -1.328125,2.089843 -1.511719,1.960938 -1.667969,1.820312 -1.820312,1.667969 -1.960938,1.511719 -2.085937,1.324219 -2.195313,1.144531 -2.289062,0.949219 -2.359375,0.738281 -2.414063,0.535156 -2.445312,0.324219 -2.476563,0.109375 -2.46875,-0.109375 -2.453125,-0.324219 -2.414062,-0.535156 -2.355469,-0.738281 -2.285156,-0.949219 -2.195313,-1.144531 -2.085937,-1.324219 -1.960938,-1.511719 -1.824218,-1.667969 -1.671875,-1.820312 -1.503907,-1.960938 -1.328125,-2.089843"
       transform="scale(1,-1)"
       id="path13133"
       style="stroke:#ffa86a;stroke-opacity:1" />
  </g>
  <g
     clip-path="url(#clip-1)"
     id="g13139"
     style="fill:none;fill-opacity:1;stroke:#ffa86a;stroke-opacity:1">
    <path
       fill="none"
       stroke-width="0.79701"
       stroke-linecap="butt"
       stroke-linejoin="miter"
       stroke="rgb(0%, 0%, 0%)"
       stroke-opacity="1"
       stroke-miterlimit="10"
       d="m 55.167969,-28.988281 -1.328125,-2.085938 -1.511719,-1.960937 -1.667969,-1.820313 -1.820312,-1.675781 -1.960938,-1.503906 -2.085937,-1.328125 -2.195313,-1.140625 -2.289062,-0.949219 -2.359375,-0.738281 -2.414063,-0.535157 -2.445312,-0.324218 -2.476563,-0.113282 -2.46875,0.113282 -2.453125,0.324218 -2.414062,0.535157 -2.355469,0.738281 -2.285156,0.949219 -2.195313,1.140625 -2.085937,1.328125 -1.960938,1.503906 -1.824218,1.675781 -1.671875,1.820313 -1.503907,1.960937 -1.328125,2.085938"
       transform="scale(1,-1)"
       id="path13137"
       style="fill:none;fill-opacity:1;stroke:#ffa86a;stroke-opacity:1" />
  </g>
  <path
     fill-rule="nonzero"
     fill="rgb(0%, 0%, 0%)"
     fill-opacity="1"
     d="m 7.558594,28.988281 c 0,-0.824218 -0.667969,-1.492187 -1.492188,-1.492187 -0.828125,0 -1.496093,0.667969 -1.496093,1.492187 0,0.824219 0.667968,1.492188 1.496093,1.492188 0.824219,0 1.492188,-0.667969 1.492188,-1.492188 z m 0,0"
     id="path13141"
     style="fill:#ffa86a;fill-opacity:1" />
  <g
     clip-path="url(#clip-2)"
     id="g13145"
     style="opacity:1;stroke:#c06338;stroke-opacity:1">
    <path
       fill="none"
       stroke-width="0.3985"
       stroke-linecap="butt"
       stroke-linejoin="miter"
       stroke="rgb(0%, 0%, 0%)"
       stroke-opacity="1"
       stroke-miterlimit="10"
       d="m 7.558594,-28.988281 c 0,0.824218 -0.667969,1.492187 -1.492188,1.492187 -0.828125,0 -1.496093,-0.667969 -1.496093,-1.492187 0,-0.824219 0.667968,-1.492188 1.496093,-1.492188 0.824219,0 1.492188,0.667969 1.492188,1.492188 z m 0,0"
       transform="scale(1,-1)"
       id="path13143"
       style="stroke:#c06338;stroke-opacity:1" />
  </g>
  <g
     clip-path="url(#clip-3)"
     id="g13149">
    <path
       fill-rule="nonzero"
       fill="rgb(0%, 0%, 0%)"
       fill-opacity="1"
       d="m 56.65625,28.988281 c 0,-0.824218 -0.667969,-1.492187 -1.488281,-1.492187 -0.828125,0 -1.496094,0.667969 -1.496094,1.492187 0,0.824219 0.667969,1.492188 1.496094,1.492188 0.820312,0 1.488281,-0.667969 1.488281,-1.492188 z m 0,0"
       id="path13147"
       style="fill:#ffa86a;fill-opacity:1" />
  </g>
  <g
     clip-path="url(#clip-4)"
     id="g13153"
     style="opacity:1;stroke:#c06338;stroke-opacity:1">
    <path
       fill="none"
       stroke-width="0.3985"
       stroke-linecap="butt"
       stroke-linejoin="miter"
       stroke="rgb(0%, 0%, 0%)"
       stroke-opacity="1"
       stroke-miterlimit="10"
       d="m 56.65625,-28.988281 c 0,0.824218 -0.667969,1.492187 -1.488281,1.492187 -0.828125,0 -1.496094,-0.667969 -1.496094,-1.492187 0,-0.824219 0.667969,-1.492188 1.496094,-1.492188 0.820312,0 1.488281,0.667969 1.488281,1.492188 z m 0,0"
       transform="scale(1,-1)"
       id="path13151"
       style="stroke:#c06338;stroke-opacity:1" />
  </g>
  <path
     fill-rule="nonzero"
     fill="#2ca25f"
     fill-opacity="1"
     d="m 79.527344,28.652344 0.292969,-0.496094 0.304687,-0.492187 0.3125,-0.484375 0.324219,-0.476563 0.332031,-0.472656 0.34375,-0.464844 0.351563,-0.457031 0.363281,-0.449219 0.371094,-0.441406 0.378906,-0.4375 0.386719,-0.425781 0.394531,-0.421875 0.40625,-0.410157 0.414062,-0.402343 0.421875,-0.394532 0.429688,-0.382812 0.4375,-0.378906 0.445312,-0.367188 0.453125,-0.359375 0.457032,-0.347656 0.46875,-0.339844 0.472656,-0.332031 0.480469,-0.320313 0.484375,-0.3125 v 19.734375 z m 0,0"
     id="path13155" />
  <path
     fill-rule="nonzero"
     fill="#2ca25f"
     fill-opacity="1"
     d="m 79.527344,28.652344 0.292969,0.496094 0.304687,0.492187 0.3125,0.484375 0.324219,0.476563 0.332031,0.46875 0.34375,0.46875 0.351563,0.457031 0.363281,0.449219 0.371094,0.441406 0.378906,0.433594 0.386719,0.429687 0.394531,0.417969 0.40625,0.410156 0.414062,0.402344 0.421875,0.394531 0.429688,0.386719 0.4375,0.378906 0.445312,0.367188 0.453125,0.359375 0.457032,0.347656 0.46875,0.339844 0.472656,0.332031 0.480469,0.320312 0.484375,0.308594 V 18.785156 Z m 0,0"
     id="path13157" />
  <path
     fill="none"
     stroke-width="0.79701"
     stroke-linecap="butt"
     stroke-linejoin="miter"
     stroke="rgb(0%, 0%, 0%)"
     stroke-opacity="1"
     stroke-miterlimit="10"
     d="m 89.054688,18.785156 -0.484375,0.3125 -0.480469,0.320313 -0.472656,0.332031 -0.46875,0.339844 -0.457032,0.347656 -0.453125,0.359375 -0.445312,0.367188 -0.4375,0.375 -0.429688,0.386718 -0.421875,0.394532 -0.414062,0.402343 -0.40625,0.410157 -0.394531,0.421875 -0.386719,0.425781 -0.378906,0.4375 -0.371094,0.441406 -0.363281,0.449219 -0.351563,0.457031 -0.339844,0.464844 -0.335937,0.472656 -0.320313,0.476563 -0.316406,0.484375 -0.304687,0.492187 -0.292969,0.496094"
     id="path13159"
     style="stroke:#ffa86a;stroke-opacity:1" />
  <g
     clip-path="url(#clip-5)"
     id="g13163"
     style="stroke:#ffa86a;stroke-opacity:1">
    <path
       fill="none"
       stroke-width="0.79701"
       stroke-linecap="butt"
       stroke-linejoin="miter"
       stroke="rgb(0%, 0%, 0%)"
       stroke-opacity="1"
       stroke-miterlimit="10"
       d="m 89.054688,-38.519531 -0.484375,0.3125 -0.480469,0.320312 -0.472656,0.332031 -0.46875,0.339844 -0.457032,0.347656 -0.453125,0.359375 -0.445312,0.367188 -0.4375,0.378906 -0.429688,0.386719 -0.421875,0.394531 -0.414062,0.402344 -0.40625,0.410156 -0.394531,0.417969 -0.386719,0.429687 -0.378906,0.433594 -0.371094,0.441406 -0.363281,0.449219 -0.351563,0.457031 -0.339844,0.464844 -0.335937,0.472656 -0.320313,0.476563 -0.316406,0.488281 -0.304687,0.488281 -0.292969,0.496094"
       transform="scale(1,-1)"
       id="path13161"
       style="stroke:#ffa86a;stroke-opacity:1" />
  </g>
  <path
     fill-rule="nonzero"
     fill="rgb(0%, 0%, 0%)"
     fill-opacity="1"
     stroke-width="0.3985"
     stroke-linecap="butt"
     stroke-linejoin="miter"
     stroke="rgb(0%, 0%, 0%)"
     stroke-opacity="1"
     stroke-miterlimit="10"
     d="m 81.019531,28.652344 c 0,-0.824219 -0.667968,-1.496094 -1.492187,-1.496094 -0.824219,0 -1.496094,0.671875 -1.496094,1.496094 0,0.824219 0.671875,1.492187 1.496094,1.492187 0.824219,0 1.492187,-0.667968 1.492187,-1.492187 z m 0,0"
     id="path13165"
     style="opacity:1;fill:#ffa86a;fill-opacity:1;stroke:#c06338;stroke-opacity:1" />
  <path
     fill-rule="nonzero"
     fill="rgb(0%, 0%, 0%)"
     fill-opacity="1"
     stroke-width="0.3985"
     stroke-linecap="butt"
     stroke-linejoin="miter"
     stroke="rgb(0%, 0%, 0%)"
     stroke-opacity="1"
     stroke-miterlimit="10"
     d="m 106.51953,27.566406 c 0,-0.824218 -0.66797,-1.496093 -1.49609,-1.496093 -0.82422,0 -1.49219,0.671875 -1.49219,1.496093 0,0.824219 0.66797,1.492188 1.49219,1.492188 0.82812,0 1.49609,-0.667969 1.49609,-1.492188 z m 0,0"
     id="path13167"
     style="opacity:1;fill:#ffa86a;fill-opacity:1;stroke:#c06338;stroke-opacity:1" />
  <path
     fill="none"
     stroke-width="0.3985"
     stroke-linecap="butt"
     stroke-linejoin="miter"
     stroke="rgb(0%, 0%, 0%)"
     stroke-opacity="1"
     stroke-dasharray="2.98883, 2.98883"
     stroke-miterlimit="10"
     d="M 133.65234,17.699219 V 37.433594"
     id="path13169"
     style="stroke:#ffa86a;stroke-opacity:1" />
  <path
     fill="none"
     stroke-width="0.79701"
     stroke-linecap="butt"
     stroke-linejoin="miter"
     stroke="rgb(0%, 0%, 0%)"
     stroke-opacity="1"
     stroke-miterlimit="10"
     d="m 133.65234,17.699219 -0.48828,0.3125 -0.48047,0.320312 -0.47265,0.332032 -0.46485,0.339843 -0.46093,0.347657 -0.45313,0.359375 -0.44141,0.367187 -0.4375,0.375 -0.42968,0.386719 -0.42188,0.394531 -0.41406,0.402344 -0.40625,0.410156 -0.39453,0.421875 -0.39063,0.425781 -0.3789,0.4375 -0.3711,0.441407 -0.35937,0.449218 -0.35156,0.457032 -0.34375,0.464843 -0.33203,0.472657 -0.32422,0.476562 -0.3125,0.484375 -0.30469,0.492188 -0.29297,0.496093"
     id="path13171"
     style="stroke:#ffa86a;stroke-opacity:1" />
  <g
     clip-path="url(#clip-6)"
     id="g13175"
     style="stroke:#ffa86a;stroke-opacity:1">
    <path
       fill="none"
       stroke-width="0.79701"
       stroke-linecap="butt"
       stroke-linejoin="miter"
       stroke="rgb(0%, 0%, 0%)"
       stroke-opacity="1"
       stroke-miterlimit="10"
       d="m 133.65234,-37.433594 -0.48828,0.3125 -0.48047,0.320313 -0.47265,0.332031 -0.46485,0.339844 -0.46093,0.347656 -0.45313,0.359375 -0.44141,0.367187 -0.4375,0.378907 -0.42968,0.386718 -0.42188,0.394532 -0.41406,0.402343 -0.40625,0.410157 -0.39453,0.417968 -0.39063,0.429688 -0.3789,0.433594 -0.3711,0.441406 -0.35937,0.449219 -0.35156,0.457031 -0.34375,0.464844 -0.33203,0.472656 -0.32422,0.476562 -0.3125,0.488282 -0.30469,0.488281 -0.29297,0.496094"
       transform="scale(1,-1)"
       id="path13173"
       style="stroke:#ffa86a;stroke-opacity:1" />
  </g>
  <path
     fill-rule="nonzero"
     fill="rgb(0%, 0%, 0%)"
     fill-opacity="1"
     stroke-width="0.3985"
     stroke-linecap="butt"
     stroke-linejoin="miter"
     stroke="rgb(0%, 0%, 0%)"
     stroke-opacity="1"
     stroke-miterlimit="10"
     d="m 125.61719,27.566406 c 0,-0.824218 -0.66797,-1.496093 -1.4961,-1.496093 -0.82421,0 -1.49218,0.671875 -1.49218,1.496093 0,0.824219 0.66797,1.492188 1.49218,1.492188 0.82813,0 1.4961,-0.667969 1.4961,-1.492188 z m 0,0"
     id="path13177"
     style="opacity:1;fill:#ffa86a;fill-opacity:1;stroke:#c06338;stroke-opacity:1" />
  <path
     fill="none"
     stroke-width="0.3985"
     stroke-linecap="butt"
     stroke-linejoin="miter"
     stroke="rgb(0%, 0%, 0%)"
     stroke-opacity="1"
     stroke-dasharray="2.98883, 2.98883"
     stroke-miterlimit="10"
     d="M 160.75,17.699219 V 37.433594"
     id="path13179"
     style="stroke:#ffa86a;stroke-opacity:1" />
  <path
     fill="none"
     stroke-width="0.3985"
     stroke-linecap="butt"
     stroke-linejoin="miter"
     stroke="rgb(0%, 0%, 0%)"
     stroke-opacity="1"
     stroke-dasharray="2.98883, 2.98883"
     stroke-miterlimit="10"
     d="M 157.55078,20.023438 V 35.105469"
     id="path13181"
     style="stroke:#ffa86a;stroke-opacity:1" />
  <path
     fill="none"
     stroke-width="0.79701"
     stroke-linecap="butt"
     stroke-linejoin="miter"
     stroke="rgb(0%, 0%, 0%)"
     stroke-opacity="1"
     stroke-miterlimit="10"
     d="m 160.75,17.699219 -0.48828,0.3125 -0.48047,0.320312 -0.47266,0.332032 -0.46484,0.339843 -0.46094,0.347657 -0.45312,0.359375 -0.44141,0.367187 -0.4375,0.375 -0.42969,0.386719 -0.42187,0.394531 -0.41406,0.402344 -0.40625,0.410156 -0.39454,0.421875 -0.38671,0.425781 -0.38282,0.4375 -0.36718,0.441407 -0.36329,0.449218 -0.35156,0.457032 -0.34375,0.464843 -0.33203,0.472657 -0.32422,0.476562 -0.3125,0.484375 -0.30469,0.492188 -0.29296,0.496093"
     id="path13183"
     style="stroke:#ffa86a;stroke-opacity:1" />
  <g
     clip-path="url(#clip-7)"
     id="g13187"
     style="stroke:#ffa86a;stroke-opacity:1">
    <path
       fill="none"
       stroke-width="0.79701"
       stroke-linecap="butt"
       stroke-linejoin="miter"
       stroke="rgb(0%, 0%, 0%)"
       stroke-opacity="1"
       stroke-miterlimit="10"
       d="m 160.75,-37.433594 -0.48828,0.3125 -0.48047,0.320313 -0.47266,0.332031 -0.46484,0.339844 -0.46094,0.347656 -0.45312,0.359375 -0.44141,0.367187 -0.4375,0.378907 -0.42969,0.386718 -0.42187,0.394532 -0.41406,0.402343 -0.40625,0.410157 -0.39454,0.417968 -0.38671,0.429688 -0.38282,0.433594 -0.36718,0.441406 -0.36329,0.449219 -0.35156,0.457031 -0.34375,0.464844 -0.33203,0.472656 -0.32422,0.476562 -0.3125,0.488282 -0.30469,0.488281 -0.29296,0.496094"
       transform="scale(1,-1)"
       id="path13185"
       style="stroke:#ffa86a;stroke-opacity:1" />
  </g>
  <path
     fill-rule="nonzero"
     fill="rgb(0%, 0%, 0%)"
     fill-opacity="1"
     stroke-width="0.3985"
     stroke-linecap="butt"
     stroke-linejoin="miter"
     stroke="rgb(0%, 0%, 0%)"
     stroke-opacity="1"
     stroke-miterlimit="10"
     d="m 152.71484,27.566406 c 0,-0.824218 -0.66797,-1.496093 -1.49218,-1.496093 -0.82813,0 -1.4961,0.671875 -1.4961,1.496093 0,0.824219 0.66797,1.492188 1.4961,1.492188 0.82421,0 1.49218,-0.667969 1.49218,-1.492188 z m 0,0"
     id="path13189"
     style="opacity:1;fill:#ffa86a;fill-opacity:1;stroke:#c06338;stroke-opacity:1" />
  <path
     fill-rule="nonzero"
     fill="rgb(0%, 0%, 0%)"
     fill-opacity="1"
     d="m 164.10937,26.984375 c -0.0547,0 -0.10156,-0.01953 -0.14062,-0.0625 -0.0312,-0.03906 -0.0469,-0.08594 -0.0469,-0.140625 0,-0.03906 0.0156,-0.08203 0.0469,-0.125 0.0391,-0.03906 0.0859,-0.0625 0.14062,-0.0625 h 2.9375 v -2.9375 c 0,-0.05078 0.0156,-0.09375 0.0469,-0.125 0.0391,-0.03906 0.0859,-0.0625 0.14062,-0.0625 0.0508,0 0.0977,0.02344 0.14063,0.0625 0.0391,0.03125 0.0625,0.07422 0.0625,0.125 v 2.9375 h 2.9375 c 0.0391,0 0.0781,0.02344 0.10937,0.0625 0.0391,0.04297 0.0625,0.08594 0.0625,0.125 0,0.05469 -0.0234,0.101563 -0.0625,0.140625 -0.0312,0.04297 -0.0703,0.0625 -0.10937,0.0625 h -2.9375 v 2.9375 c 0,0.05078 -0.0234,0.09375 -0.0625,0.125 -0.043,0.03906 -0.0898,0.0625 -0.14063,0.0625 -0.0547,0 -0.10156,-0.02344 -0.14062,-0.0625 -0.0312,-0.03125 -0.0469,-0.07422 -0.0469,-0.125 v -2.9375 z m 0,0"
     id="path13191"
     style="fill:#ffa86a;fill-opacity:1" />
  <path
     fill-rule="evenodd"
     fill="rgb(0%, 0%, 0%)"
     fill-opacity="1"
     d="m 98.796875,28.652344 h 0.117188 l 0.01172,0.0039 h 0.01563 l 0.01563,0.0039 h 0.01172 l 0.01563,0.0039 0.03516,0.01172 0.01563,0.0039 0.01172,0.0078 0.01172,0.0039 0.0078,0.0078 0.01172,0.0078 0.01563,0.01563 0.0078,0.01172 0.0078,0.0039 0.0039,0.0078 v 0.004 l 0.0039,0.0078 0.0039,0.0039 0.0039,0.0078 v 0.0078 l 0.0039,0.0078 v 0.0039 l 0.0039,0.0078 v 0.02344 l 0.0039,0.01172 v 0.01563 c 0,0.199219 -0.191406,0.199219 -0.328125,0.199219 h -5.976563 c -0.140625,0 -0.328125,0 -0.328125,-0.199219 0,-0.195312 0.1875,-0.195312 0.335938,-0.195312 z m 0,0"
     id="path13193"
     style="fill:#ffa86a;fill-opacity:1" />
  <path
     fill-rule="evenodd"
     fill="rgb(0%, 0%, 0%)"
     fill-opacity="1"
     d="m 98.808594,26.714844 h 0.09375 l 0.01563,0.0039 h 0.02734 l 0.01172,0.0039 0.01563,0.0039 h 0.01172 l 0.01172,0.0039 0.01563,0.0039 0.02344,0.0078 0.01172,0.0078 0.01172,0.0039 0.03906,0.03906 0.0039,0.0078 0.0078,0.0039 0.0039,0.0039 v 0.0078 l 0.0039,0.0039 0.0039,0.0078 0.0039,0.0039 v 0.0078 l 0.0039,0.0078 v 0.0078 l 0.0039,0.0078 v 0.02344 l 0.0039,0.0078 v 0.01953 c 0,0.199218 -0.191406,0.199218 -0.339844,0.199218 h -5.957031 c -0.148438,0 -0.335938,0 -0.335938,-0.199218 0,-0.199219 0.1875,-0.199219 0.328125,-0.199219 z m 0,0"
     id="path13195"
     style="fill:#ffa86a;fill-opacity:1" />
  <path
     fill-rule="evenodd"
     fill="rgb(0%, 0%, 0%)"
     fill-opacity="1"
     d="m 114.78125,26.578125 h 2.76172 c 0.13672,0 0.32422,0 0.32422,0.199219 0,0.199219 -0.1875,0.199219 -0.32422,0.199219 h -2.76172 v 2.769531 c 0,0.136719 0,0.328125 -0.19922,0.328125 -0.19531,0 -0.19531,-0.191406 -0.19531,-0.328125 v -2.769531 h -2.76953 c -0.14063,0 -0.32422,0 -0.32422,-0.199219 0,-0.199219 0.18359,-0.199219 0.32422,-0.199219 h 2.76953 V 23.8125 c 0,-0.140625 0,-0.328125 0.19531,-0.328125 0.19922,0 0.19922,0.1875 0.19922,0.328125 z m 0,0"
     id="path13197"
     style="fill:#ffa86a;fill-opacity:1" />
  <path
     fill-rule="evenodd"
     fill="rgb(0%, 0%, 0%)"
     fill-opacity="1"
     d="m 141.875,26.425781 h 2.76172 c 0.13672,0 0.32422,0 0.32422,0.199219 0,0.199219 -0.1875,0.199219 -0.32422,0.199219 H 141.875 v 2.773437 c 0,0.132813 0,0.324219 -0.19922,0.324219 -0.19531,0 -0.19531,-0.191406 -0.19531,-0.324219 v -2.773437 h -2.76953 c -0.14063,0 -0.32422,0 -0.32422,-0.199219 0,-0.199219 0.18359,-0.199219 0.32422,-0.199219 h 2.76953 v -2.765625 c 0,-0.140625 0,-0.328125 0.19531,-0.328125 0.19922,0 0.19922,0.1875 0.19922,0.328125 z m 0,0"
     id="path13199"
     style="fill:#ffa86a;fill-opacity:1" />
  <path
     fill-rule="evenodd"
     fill="rgb(0%, 0%, 0%)"
     fill-opacity="1"
     d="m 167.44531,26.570313 h 2.76172 c 0.13672,0 0.32813,0 0.32813,0.199218 0,0.199219 -0.19141,0.199219 -0.32813,0.199219 h -2.76172 v 2.769531 c 0,0.136719 0,0.324219 -0.19922,0.324219 -0.19531,0 -0.19531,-0.1875 -0.19531,-0.324219 V 26.96875 h -2.76953 c -0.14063,0 -0.32422,0 -0.32422,-0.199219 0,-0.199218 0.18359,-0.199218 0.32422,-0.199218 h 2.76953 v -2.769532 c 0,-0.136718 0,-0.328125 0.19531,-0.328125 0.19922,0 0.19922,0.191407 0.19922,0.328125 z m 0,0"
     id="path13201"
     style="fill:#ffa86a;fill-opacity:1" />
  <path
     fill-rule="evenodd"
     fill="rgb(0%, 0%, 0%)"
     fill-opacity="1"
     d="m 177.44922,26.601563 v 0.07422 l -0.008,0.03516 -0.004,0.03516 -0.008,0.03906 -0.0117,0.03516 -0.0234,0.0625 -0.0469,0.09375 -0.0195,0.03125 -0.0195,0.02734 -0.0469,0.05469 -0.0195,0.02344 -0.082,0.07031 -0.0273,0.01563 -0.0273,0.01953 -0.0312,0.01953 -0.0312,0.01563 -0.0312,0.01172 -0.0352,0.01563 -0.0352,0.01172 -0.0312,0.0078 -0.0703,0.01563 -0.0703,0.0078 h -0.0391 c -0.39453,0 -0.72266,-0.324219 -0.72266,-0.722656 0,-0.390625 0.32813,-0.71875 0.72266,-0.71875 0.39453,0 0.71875,0.328125 0.71875,0.71875 z m 0,0"
     id="path13203"
     style="fill:#ffa86a;fill-opacity:1" />
  <path
     fill-rule="evenodd"
     fill="rgb(0%, 0%, 0%)"
     fill-opacity="1"
     d="m 183.47656,26.601563 v 0.07422 l -0.008,0.03516 -0.004,0.03516 -0.008,0.03906 -0.0117,0.03516 -0.0234,0.0625 -0.0469,0.09375 -0.0195,0.03125 -0.0234,0.02734 -0.0195,0.02734 -0.0234,0.02734 -0.0469,0.04687 -0.0547,0.04687 -0.0273,0.01563 -0.0273,0.01953 -0.0312,0.01953 -0.0312,0.01563 -0.0312,0.01172 -0.0312,0.01563 -0.0391,0.01172 -0.0312,0.0078 -0.0703,0.01563 -0.0703,0.0078 h -0.0391 c -0.39453,0 -0.72265,-0.324219 -0.72265,-0.722656 0,-0.390625 0.32812,-0.71875 0.72265,-0.71875 0.39453,0 0.71875,0.328125 0.71875,0.71875 z m 0,0"
     id="path13205"
     style="fill:#ffa86a;fill-opacity:1" />
  <g
     clip-path="url(#clip-8)"
     id="g13209">
    <path
       fill-rule="evenodd"
       fill="rgb(0%, 0%, 0%)"
       fill-opacity="1"
       d="m 189.50391,26.601563 v 0.03906 l -0.008,0.07031 -0.008,0.03516 -0.008,0.03906 -0.0117,0.03516 -0.008,0.03125 -0.0117,0.03125 -0.0156,0.03125 -0.0195,0.03125 -0.0156,0.03125 -0.0195,0.03125 -0.0391,0.05469 -0.0234,0.02734 -0.0469,0.04687 -0.0547,0.04687 -0.0273,0.01563 -0.0625,0.03906 -0.0273,0.01563 -0.0352,0.01172 -0.0312,0.01563 -0.0352,0.01172 -0.10547,0.02344 -0.0703,0.0078 h -0.0391 c -0.39063,0 -0.71875,-0.324219 -0.71875,-0.722656 0,-0.390625 0.32812,-0.71875 0.71875,-0.71875 0.39844,0 0.72266,0.328125 0.72266,0.71875 z m 0,0"
       id="path13207"
       style="fill:#ffa86a;fill-opacity:1" />
  </g>
  <path
     fill-rule="nonzero"
     fill="rgb(0%, 0%, 0%)"
     fill-opacity="1"
     d="M 5.71875,8.078125 V 7.25 h -0.625 v 0.828125 c 0,0.6875 -0.125,0.609375 -0.265625,0.609375 -0.390625,0 -0.28125,-0.390625 -0.28125,-0.453125 V 5.84375 C 4.546875,5.34375 4.5,4.765625 4.0625,4.328125 3.59375,3.859375 2.890625,3.625 2.3125,3.625 c -0.96875,0 -1.96875,0.71875 -1.96875,1.5 0,0.359375 0.40625,0.703125 0.71875,0.703125 0.328125,0 0.703125,-0.375 0.703125,-0.6875 0,-0.140625 -0.21875,-0.6875 -0.46875,-0.6875 C 1.4375,4.28125 1.90625,4.1875 2.296875,4.1875 2.875,4.1875 3.390625,4.5 3.390625,5.578125 V 5.875 C 2.953125,5.890625 2.109375,5.9375 1.359375,6.28125 0.46875,6.703125 0,7.46875 0,8 c 0,0.96875 1.328125,1.40625 2.078125,1.40625 0.796875,0 1.5,-0.609375 1.71875,-1.171875 h -0.3125 c 0.046875,0.46875 0.53125,1.125 1.09375,1.125 0.25,0 1.140625,-0.3125 1.140625,-1.28125 z M 3.390625,7.46875 c 0,1.125 -0.6875,1.375 -1.234375,1.375 -0.578125,0 -0.921875,-0.25 -0.921875,-0.859375 0,-0.65625 0.359375,-1.5 2.15625,-1.5625 z m 0,0"
     id="path13211"
     style="fill:#ffffff;fill-opacity:1" />
  <path
     fill-rule="nonzero"
     fill="rgb(0%, 0%, 0%)"
     fill-opacity="1"
     d="m 9.378906,6.140625 c 0,-0.921875 -0.125,-2.375 -0.78125,-3.734375 C 7.878906,0.9375 6.691406,0 6.566406,0 c -0.0625,0 -0.28125,0.203125 -0.28125,0.28125 0,0.03125 0.046875,0.171875 0.28125,0.375 1.171875,1.1875 1.796875,2.984375 1.796875,5.484375 0,2.046875 -0.390625,4.046875 -1.875,5.5625 -0.15625,0.140625 -0.203125,0.265625 -0.203125,0.3125 0,0.0625 0.21875,0.265625 0.28125,0.265625 0.125,0 1.359375,-0.96875 2.0625,-2.484375 0.609375,-1.3125 0.75,-2.640625 0.75,-3.65625 z m 0,0"
     id="path13213"
     style="fill:#ffffff;fill-opacity:1" />
  <path
     fill-rule="nonzero"
     fill="rgb(0%, 0%, 0%)"
     fill-opacity="1"
     d="m 79.878906,6.546875 c 0,-1.515625 -1.328125,-2.859375 -2.6875,-2.859375 -0.9375,0 -1.578125,0.609375 -1.765625,0.828125 L 75.707031,4.625 V 0.65625 l -2.046875,0.171875 v 0.65625 c 1,0 0.921875,-0.0625 0.921875,0.515625 v 7.28125 h 0.5625 l 0.34375,-0.59375 c 0.0625,0.09375 0.6875,0.71875 1.5625,0.71875 1.421875,0 2.828125,-1.3125 2.828125,-2.859375 z m -1.3125,0 c 0,0.4375 0.01563,1.046875 -0.328125,1.578125 -0.25,0.375 -0.578125,0.71875 -1.234375,0.71875 -0.53125,0 -0.859375,-0.234375 -1.140625,-0.671875 -0.171875,-0.25 -0.125,-0.1875 -0.125,-0.40625 V 5.3125 c 0,-0.234375 -0.04687,-0.140625 0.07813,-0.328125 C 76.285156,4.3125 76.832031,4.25 77.128906,4.25 c 0.53125,0 0.84375,0.28125 1.140625,0.734375 0.3125,0.484375 0.296875,1.0625 0.296875,1.5625 z m 0,0"
     id="path13215"
     style="fill:#ffffff;fill-opacity:1" />
  <path
     fill-rule="nonzero"
     fill="rgb(0%, 0%, 0%)"
     fill-opacity="1"
     d="m 83.765625,6.140625 c 0,-0.921875 -0.125,-2.375 -0.78125,-3.734375 C 82.265625,0.9375 81.078125,0 80.953125,0 c -0.0625,0 -0.28125,0.203125 -0.28125,0.28125 0,0.03125 0.04687,0.171875 0.28125,0.375 C 82.125,1.84375 82.75,3.640625 82.75,6.140625 c 0,2.046875 -0.390625,4.046875 -1.875,5.5625 -0.15625,0.140625 -0.203125,0.265625 -0.203125,0.3125 0,0.0625 0.21875,0.265625 0.28125,0.265625 0.125,0 1.359375,-0.96875 2.0625,-2.484375 0.609375,-1.3125 0.75,-2.640625 0.75,-3.65625 z m 0,0"
     id="path13217"
     style="fill:#ffffff;fill-opacity:1" />
</svg>
