<?xml version="1.0" encoding="utf-8" standalone="no"?>
<!DOCTYPE svg PUBLIC "-//W3C//DTD SVG 1.1//EN"
  "http://www.w3.org/Graphics/SVG/1.1/DTD/svg11.dtd">
<svg xmlns:xlink="http://www.w3.org/1999/xlink" width="288pt" height="288pt" viewBox="0 0 288 288" xmlns="http://www.w3.org/2000/svg" version="1.1">
 <metadata>
  <rdf:RDF xmlns:dc="http://purl.org/dc/elements/1.1/" xmlns:cc="http://creativecommons.org/ns#" xmlns:rdf="http://www.w3.org/1999/02/22-rdf-syntax-ns#">
   <cc:Work>
    <dc:type rdf:resource="http://purl.org/dc/dcmitype/StillImage"/>
    <dc:date>2025-01-26T11:02:56.941215</dc:date>
    <dc:format>image/svg+xml</dc:format>
    <dc:creator>
     <cc:Agent>
      <dc:title>Matplotlib v3.10.0, https://matplotlib.org/</dc:title>
     </cc:Agent>
    </dc:creator>
   </cc:Work>
  </rdf:RDF>
 </metadata>
 <defs>
  <style type="text/css">*{stroke-linejoin: round; stroke-linecap: butt}</style>
 </defs>
 <g id="figure_1">
  <g id="patch_1">
   <path d="M 0 288 
L 288 288 
L 288 0 
L 0 0 
z
" style="fill: #222129"/>
  </g>
  <g id="axes_1">
   <g id="patch_2">
    <path d="M 44.85125 246.0625 
L 277.2 246.0625 
L 277.2 26.16 
L 44.85125 26.16 
z
" style="fill: #222129"/>
   </g>
   <g id="patch_3">
    <path d="M 55.412557 246.0625 
L 80.262691 246.0625 
L 80.262691 44.111224 
L 55.412557 44.111224 
z
" clip-path="url(#p363de801b7)" style="fill: #ffa86a"/>
   </g>
   <g id="patch_4">
    <path d="M 86.475224 246.0625 
L 111.325358 246.0625 
L 111.325358 167.525893 
L 86.475224 167.525893 
z
" clip-path="url(#p363de801b7)" style="fill: #ffa86a"/>
   </g>
   <g id="patch_5">
    <path d="M 117.537891 246.0625 
L 142.388025 246.0625 
L 142.388025 186.225085 
L 117.537891 186.225085 
z
" clip-path="url(#p363de801b7)" style="fill: #ffa86a"/>
   </g>
   <g id="patch_6">
    <path d="M 148.600558 246.0625 
L 173.450692 246.0625 
L 173.450692 214.89718 
L 148.600558 214.89718 
z
" clip-path="url(#p363de801b7)" style="fill: #ffa86a"/>
   </g>
   <g id="patch_7">
    <path d="M 179.663225 246.0625 
L 204.513359 246.0625 
L 204.513359 218.637018 
L 179.663225 218.637018 
z
" clip-path="url(#p363de801b7)" style="fill: #ffa86a"/>
   </g>
   <g id="patch_8">
    <path d="M 210.725892 246.0625 
L 235.576026 246.0625 
L 235.576026 229.856533 
L 210.725892 229.856533 
z
" clip-path="url(#p363de801b7)" style="fill: #ffa86a"/>
   </g>
   <g id="patch_9">
    <path d="M 241.788559 246.0625 
L 266.638693 246.0625 
L 266.638693 36.631548 
L 241.788559 36.631548 
z
" clip-path="url(#p363de801b7)" style="fill: #ffa86a"/>
   </g>
   <g id="matplotlib.axis_1">
    <g id="xtick_1">
     <g id="line2d_1">
      <defs>
       <path id="md2d2d2768a" d="M 0 0 
L 0 3.5 
" style="stroke: #ffffff; stroke-width: 0.8"/>
      </defs>
      <g>
       <use xlink:href="#md2d2d2768a" x="67.837624" y="246.0625" style="fill: #ffffff; stroke: #ffffff; stroke-width: 0.8"/>
      </g>
     </g>
     <g id="text_1">
      <!-- 0 -->
      <g style="fill: #ffffff" transform="translate(64.76028 260.6375) scale(0.1 -0.1)">
       <defs>
        <path id="FiraCodeNF-Reg-30" d="M 1969 4592 
Q 2698 4592 3073 3988 
Q 3449 3384 3449 2261 
Q 3449 1136 3073 530 
Q 2698 -75 1969 -75 
Q 1241 -75 865 530 
Q 489 1136 489 2261 
Q 489 3384 865 3988 
Q 1241 4592 1969 4592 
z
M 1969 4149 
Q 1552 4149 1312 3707 
Q 1073 3266 1073 2261 
Q 1073 1510 1188 1080 
L 2570 3856 
Q 2363 4149 1969 4149 
z
M 2869 2261 
Q 2869 3019 2750 3446 
L 1375 660 
Q 1582 371 1969 371 
Q 2389 371 2629 814 
Q 2869 1257 2869 2261 
z
" transform="scale(0.015625)"/>
       </defs>
       <use xlink:href="#FiraCodeNF-Reg-30"/>
      </g>
     </g>
    </g>
    <g id="xtick_2">
     <g id="line2d_2">
      <g>
       <use xlink:href="#md2d2d2768a" x="98.900291" y="246.0625" style="fill: #ffffff; stroke: #ffffff; stroke-width: 0.8"/>
      </g>
     </g>
     <g id="text_2">
      <!-- 1 -->
      <g style="fill: #ffffff" transform="translate(95.822947 260.6375) scale(0.1 -0.1)">
       <defs>
        <path id="FiraCodeNF-Reg-31" d="M 3397 450 
L 3397 0 
L 788 0 
L 788 450 
L 1900 450 
L 1900 3922 
L 863 3292 
L 624 3686 
L 1969 4519 
L 2452 4519 
L 2452 450 
L 3397 450 
z
" transform="scale(0.015625)"/>
       </defs>
       <use xlink:href="#FiraCodeNF-Reg-31"/>
      </g>
     </g>
    </g>
    <g id="xtick_3">
     <g id="line2d_3">
      <g>
       <use xlink:href="#md2d2d2768a" x="129.962958" y="246.0625" style="fill: #ffffff; stroke: #ffffff; stroke-width: 0.8"/>
      </g>
     </g>
     <g id="text_3">
      <!-- 2 -->
      <g style="fill: #ffffff" transform="translate(126.885614 260.6375) scale(0.1 -0.1)">
       <defs>
        <path id="FiraCodeNF-Reg-32" d="M 1769 4592 
Q 2196 4592 2501 4426 
Q 2806 4260 2968 3974 
Q 3131 3689 3131 3331 
Q 3131 3019 3023 2722 
Q 2915 2425 2677 2098 
Q 2439 1772 2051 1375 
Q 1664 978 1106 469 
L 3236 469 
L 3167 0 
L 479 0 
L 479 450 
Q 1119 1063 1524 1486 
Q 1930 1910 2153 2217 
Q 2376 2524 2463 2780 
Q 2550 3036 2550 3312 
Q 2550 3692 2337 3912 
Q 2124 4132 1743 4132 
Q 1408 4132 1194 4017 
Q 981 3902 768 3650 
L 387 3945 
Q 656 4273 983 4432 
Q 1310 4592 1769 4592 
z
" transform="scale(0.015625)"/>
       </defs>
       <use xlink:href="#FiraCodeNF-Reg-32"/>
      </g>
     </g>
    </g>
    <g id="xtick_4">
     <g id="line2d_4">
      <g>
       <use xlink:href="#md2d2d2768a" x="161.025625" y="246.0625" style="fill: #ffffff; stroke: #ffffff; stroke-width: 0.8"/>
      </g>
     </g>
     <g id="text_4">
      <!-- 3 -->
      <g style="fill: #ffffff" transform="translate(157.948281 260.6375) scale(0.1 -0.1)">
       <defs>
        <path id="FiraCodeNF-Reg-33" d="M 1763 4592 
Q 2189 4592 2501 4437 
Q 2813 4283 2982 4027 
Q 3151 3771 3151 3463 
Q 3151 3187 3029 2965 
Q 2908 2744 2708 2599 
Q 2508 2455 2268 2409 
Q 2534 2389 2768 2259 
Q 3003 2130 3149 1890 
Q 3295 1651 3295 1303 
Q 3295 912 3098 599 
Q 2901 286 2548 105 
Q 2196 -75 1726 -75 
Q 1346 -75 971 69 
Q 597 213 338 528 
L 709 830 
Q 903 604 1170 492 
Q 1438 381 1713 381 
Q 2186 381 2452 628 
Q 2718 876 2718 1303 
Q 2718 1785 2450 1972 
Q 2183 2160 1782 2160 
L 1401 2160 
L 1470 2596 
L 1736 2596 
Q 1956 2596 2151 2681 
Q 2347 2767 2471 2941 
Q 2596 3115 2596 3384 
Q 2596 3758 2346 3955 
Q 2097 4152 1743 4152 
Q 1447 4152 1227 4048 
Q 1008 3945 784 3735 
L 479 4073 
Q 768 4345 1093 4468 
Q 1418 4592 1763 4592 
z
" transform="scale(0.015625)"/>
       </defs>
       <use xlink:href="#FiraCodeNF-Reg-33"/>
      </g>
     </g>
    </g>
    <g id="xtick_5">
     <g id="line2d_5">
      <g>
       <use xlink:href="#md2d2d2768a" x="192.088292" y="246.0625" style="fill: #ffffff; stroke: #ffffff; stroke-width: 0.8"/>
      </g>
     </g>
     <g id="text_5">
      <!-- 4 -->
      <g style="fill: #ffffff" transform="translate(189.010948 260.6375) scale(0.1 -0.1)">
       <defs>
        <path id="FiraCodeNF-Reg-34" d="M 2885 2823 
L 2885 1539 
L 3469 1539 
L 3469 1099 
L 2885 1099 
L 2885 0 
L 2353 0 
L 2350 1099 
L 473 1099 
L 473 1500 
L 1799 4592 
L 2258 4398 
L 1057 1539 
L 2353 1539 
L 2425 2823 
L 2885 2823 
z
" transform="scale(0.015625)"/>
       </defs>
       <use xlink:href="#FiraCodeNF-Reg-34"/>
      </g>
     </g>
    </g>
    <g id="xtick_6">
     <g id="line2d_6">
      <g>
       <use xlink:href="#md2d2d2768a" x="223.150959" y="246.0625" style="fill: #ffffff; stroke: #ffffff; stroke-width: 0.8"/>
      </g>
     </g>
     <g id="text_6">
      <!-- 5 -->
      <g style="fill: #ffffff" transform="translate(220.073615 260.6375) scale(0.1 -0.1)">
       <defs>
        <path id="FiraCodeNF-Reg-35" d="M 3197 4519 
L 3115 4080 
L 1329 4080 
L 1329 2655 
Q 1536 2763 1721 2806 
Q 1907 2849 2110 2849 
Q 2662 2849 3003 2478 
Q 3344 2107 3344 1431 
Q 3344 978 3155 640 
Q 2967 302 2624 113 
Q 2281 -75 1815 -75 
Q 1408 -75 1088 69 
Q 768 213 505 469 
L 847 798 
Q 1251 381 1822 381 
Q 2268 381 2517 651 
Q 2767 922 2767 1447 
Q 2767 1812 2658 2022 
Q 2550 2232 2364 2322 
Q 2179 2412 1953 2412 
Q 1753 2412 1598 2373 
Q 1444 2334 1247 2261 
L 804 2261 
L 804 4519 
L 3197 4519 
z
" transform="scale(0.015625)"/>
       </defs>
       <use xlink:href="#FiraCodeNF-Reg-35"/>
      </g>
     </g>
    </g>
    <g id="xtick_7">
     <g id="line2d_7">
      <g>
       <use xlink:href="#md2d2d2768a" x="254.213626" y="246.0625" style="fill: #ffffff; stroke: #ffffff; stroke-width: 0.8"/>
      </g>
     </g>
     <g id="text_7">
      <!-- &gt;5 -->
      <g style="fill: #ffffff" transform="translate(248.058939 260.6375) scale(0.1 -0.1)">
       <defs>
        <path id="FiraCodeNF-Reg-3e" d="M 844 3899 
L 3367 2340 
L 3367 1776 
L 876 217 
L 578 624 
L 2895 2055 
L 578 3482 
L 844 3899 
z
" transform="scale(0.015625)"/>
       </defs>
       <use xlink:href="#FiraCodeNF-Reg-3e"/>
       <use xlink:href="#FiraCodeNF-Reg-35" transform="translate(61.538452 0)"/>
      </g>
     </g>
    </g>
    <g id="text_8">
     <!-- Citation Count -->
     <g style="fill: #ffffff" transform="translate(117.942813 274.3875) scale(0.1 -0.1)">
      <defs>
       <path id="FiraCodeNF-Reg-43" d="M 2350 4592 
Q 2793 4592 3091 4480 
Q 3390 4368 3660 4152 
L 3341 3781 
Q 3128 3961 2890 4038 
Q 2652 4116 2393 4116 
Q 2022 4116 1707 3940 
Q 1392 3765 1200 3359 
Q 1008 2954 1008 2261 
Q 1008 1589 1190 1182 
Q 1372 775 1684 594 
Q 1996 414 2380 414 
Q 2757 414 3005 528 
Q 3253 643 3430 791 
L 3725 417 
Q 3518 217 3186 71 
Q 2855 -75 2373 -75 
Q 1822 -75 1378 192 
Q 935 459 676 981 
Q 417 1503 417 2261 
Q 417 3023 681 3543 
Q 945 4063 1385 4327 
Q 1825 4592 2350 4592 
z
" transform="scale(0.015625)"/>
       <path id="FiraCodeNF-Reg-69" d="M 1969 5074 
Q 2153 5074 2263 4962 
Q 2373 4851 2373 4690 
Q 2373 4523 2263 4409 
Q 2153 4296 1969 4296 
Q 1795 4296 1683 4409 
Q 1572 4523 1572 4690 
Q 1572 4851 1683 4962 
Q 1795 5074 1969 5074 
z
M 2409 3456 
L 2409 437 
L 3384 437 
L 3384 0 
L 791 0 
L 791 437 
L 1858 437 
L 1858 3019 
L 824 3019 
L 824 3456 
L 2409 3456 
z
" transform="scale(0.015625)"/>
       <path id="FiraCodeNF-Reg-74" d="M 3404 174 
Q 3226 56 2973 -9 
Q 2721 -75 2478 -75 
Q 1920 -75 1618 217 
Q 1316 509 1316 968 
L 1316 3029 
L 522 3029 
L 522 3456 
L 1316 3456 
L 1316 4240 
L 1868 4306 
L 1868 3456 
L 3062 3456 
L 2997 3029 
L 1868 3029 
L 1868 975 
Q 1868 686 2020 535 
Q 2173 384 2527 384 
Q 2721 384 2885 430 
Q 3049 476 3190 548 
L 3404 174 
z
" transform="scale(0.015625)"/>
       <path id="FiraCodeNF-Reg-61" d="M 3134 755 
Q 3134 545 3203 449 
Q 3272 354 3417 312 
L 3282 -75 
Q 3059 -46 2891 67 
Q 2724 181 2649 410 
Q 2462 171 2181 48 
Q 1900 -75 1566 -75 
Q 1047 -75 748 217 
Q 450 509 450 991 
Q 450 1526 866 1811 
Q 1283 2097 2071 2097 
L 2580 2097 
L 2580 2386 
Q 2580 2760 2361 2916 
Q 2143 3072 1756 3072 
Q 1585 3072 1355 3031 
Q 1126 2990 857 2895 
L 712 3312 
Q 1027 3430 1308 3479 
Q 1589 3528 1841 3528 
Q 2485 3528 2809 3226 
Q 3134 2924 3134 2412 
L 3134 755 
z
M 1707 345 
Q 1963 345 2194 474 
Q 2425 604 2580 834 
L 2580 1723 
L 2081 1723 
Q 1510 1723 1275 1526 
Q 1040 1329 1040 998 
Q 1040 345 1707 345 
z
" transform="scale(0.015625)"/>
       <path id="FiraCodeNF-Reg-6f" d="M 1976 3528 
Q 2708 3528 3082 3039 
Q 3456 2550 3456 1730 
Q 3456 1201 3285 794 
Q 3115 387 2783 156 
Q 2452 -75 1969 -75 
Q 1237 -75 860 417 
Q 483 909 483 1723 
Q 483 2255 653 2663 
Q 824 3072 1157 3300 
Q 1490 3528 1976 3528 
z
M 1976 3079 
Q 1529 3079 1301 2747 
Q 1073 2416 1073 1723 
Q 1073 1037 1298 707 
Q 1523 377 1969 377 
Q 2416 377 2640 708 
Q 2865 1040 2865 1730 
Q 2865 2419 2642 2749 
Q 2419 3079 1976 3079 
z
" transform="scale(0.015625)"/>
       <path id="FiraCodeNF-Reg-6e" d="M 660 0 
L 660 3456 
L 1129 3456 
L 1172 2977 
Q 1382 3243 1697 3385 
Q 2012 3528 2314 3528 
Q 2823 3528 3054 3259 
Q 3285 2990 3285 2511 
L 3285 0 
L 2734 0 
L 2734 2104 
Q 2734 2458 2694 2674 
Q 2655 2891 2529 2993 
Q 2403 3095 2143 3095 
Q 1940 3095 1761 3006 
Q 1582 2918 1442 2785 
Q 1303 2652 1211 2517 
L 1211 0 
L 660 0 
z
" transform="scale(0.015625)"/>
       <path id="FiraCodeNF-Reg-20" transform="scale(0.015625)"/>
       <path id="FiraCodeNF-Reg-75" d="M 1211 3456 
L 1211 1008 
Q 1211 666 1352 515 
Q 1493 364 1792 364 
Q 2078 364 2332 526 
Q 2586 689 2727 912 
L 2727 3456 
L 3279 3456 
L 3279 0 
L 2809 0 
L 2764 466 
Q 2560 203 2259 64 
Q 1959 -75 1657 -75 
Q 1155 -75 907 192 
Q 660 459 660 942 
L 660 3456 
L 1211 3456 
z
" transform="scale(0.015625)"/>
      </defs>
      <use xlink:href="#FiraCodeNF-Reg-43"/>
      <use xlink:href="#FiraCodeNF-Reg-69" transform="translate(61.538452 0)"/>
      <use xlink:href="#FiraCodeNF-Reg-74" transform="translate(123.076904 0)"/>
      <use xlink:href="#FiraCodeNF-Reg-61" transform="translate(184.615356 0)"/>
      <use xlink:href="#FiraCodeNF-Reg-74" transform="translate(246.153809 0)"/>
      <use xlink:href="#FiraCodeNF-Reg-69" transform="translate(307.692261 0)"/>
      <use xlink:href="#FiraCodeNF-Reg-6f" transform="translate(369.230713 0)"/>
      <use xlink:href="#FiraCodeNF-Reg-6e" transform="translate(430.769165 0)"/>
      <use xlink:href="#FiraCodeNF-Reg-20" transform="translate(492.307617 0)"/>
      <use xlink:href="#FiraCodeNF-Reg-43" transform="translate(553.846069 0)"/>
      <use xlink:href="#FiraCodeNF-Reg-6f" transform="translate(615.384521 0)"/>
      <use xlink:href="#FiraCodeNF-Reg-75" transform="translate(676.922974 0)"/>
      <use xlink:href="#FiraCodeNF-Reg-6e" transform="translate(738.461426 0)"/>
      <use xlink:href="#FiraCodeNF-Reg-74" transform="translate(799.999878 0)"/>
     </g>
    </g>
   </g>
   <g id="matplotlib.axis_2">
    <g id="ytick_1">
     <g id="line2d_8">
      <defs>
       <path id="mc96200351e" d="M 0 0 
L -3.5 0 
" style="stroke: #ffffff; stroke-width: 0.8"/>
      </defs>
      <g>
       <use xlink:href="#mc96200351e" x="44.85125" y="246.0625" style="fill: #ffffff; stroke: #ffffff; stroke-width: 0.8"/>
      </g>
     </g>
     <g id="text_9">
      <!-- 0 -->
      <g style="fill: #ffffff" transform="translate(31.696563 249.85) scale(0.1 -0.1)">
       <use xlink:href="#FiraCodeNF-Reg-30"/>
      </g>
     </g>
    </g>
    <g id="ytick_2">
     <g id="line2d_9">
      <g>
       <use xlink:href="#mc96200351e" x="44.85125" y="214.834849" style="fill: #ffffff; stroke: #ffffff; stroke-width: 0.8"/>
      </g>
     </g>
     <g id="text_10">
      <!-- 5 -->
      <g style="fill: #ffffff" transform="translate(31.696563 218.622349) scale(0.1 -0.1)">
       <use xlink:href="#FiraCodeNF-Reg-35"/>
      </g>
     </g>
    </g>
    <g id="ytick_3">
     <g id="line2d_10">
      <g>
       <use xlink:href="#mc96200351e" x="44.85125" y="183.607198" style="fill: #ffffff; stroke: #ffffff; stroke-width: 0.8"/>
      </g>
     </g>
     <g id="text_11">
      <!-- 10 -->
      <g style="fill: #ffffff" transform="translate(25.541875 187.394698) scale(0.1 -0.1)">
       <use xlink:href="#FiraCodeNF-Reg-31"/>
       <use xlink:href="#FiraCodeNF-Reg-30" transform="translate(61.538452 0)"/>
      </g>
     </g>
    </g>
    <g id="ytick_4">
     <g id="line2d_11">
      <g>
       <use xlink:href="#mc96200351e" x="44.85125" y="152.379547" style="fill: #ffffff; stroke: #ffffff; stroke-width: 0.8"/>
      </g>
     </g>
     <g id="text_12">
      <!-- 15 -->
      <g style="fill: #ffffff" transform="translate(25.541875 156.167047) scale(0.1 -0.1)">
       <use xlink:href="#FiraCodeNF-Reg-31"/>
       <use xlink:href="#FiraCodeNF-Reg-35" transform="translate(61.538452 0)"/>
      </g>
     </g>
    </g>
    <g id="ytick_5">
     <g id="line2d_12">
      <g>
       <use xlink:href="#mc96200351e" x="44.85125" y="121.151896" style="fill: #ffffff; stroke: #ffffff; stroke-width: 0.8"/>
      </g>
     </g>
     <g id="text_13">
      <!-- 20 -->
      <g style="fill: #ffffff" transform="translate(25.541875 124.939396) scale(0.1 -0.1)">
       <use xlink:href="#FiraCodeNF-Reg-32"/>
       <use xlink:href="#FiraCodeNF-Reg-30" transform="translate(61.538452 0)"/>
      </g>
     </g>
    </g>
    <g id="ytick_6">
     <g id="line2d_13">
      <g>
       <use xlink:href="#mc96200351e" x="44.85125" y="89.924245" style="fill: #ffffff; stroke: #ffffff; stroke-width: 0.8"/>
      </g>
     </g>
     <g id="text_14">
      <!-- 25 -->
      <g style="fill: #ffffff" transform="translate(25.541875 93.711745) scale(0.1 -0.1)">
       <use xlink:href="#FiraCodeNF-Reg-32"/>
       <use xlink:href="#FiraCodeNF-Reg-35" transform="translate(61.538452 0)"/>
      </g>
     </g>
    </g>
    <g id="ytick_7">
     <g id="line2d_14">
      <g>
       <use xlink:href="#mc96200351e" x="44.85125" y="58.696594" style="fill: #ffffff; stroke: #ffffff; stroke-width: 0.8"/>
      </g>
     </g>
     <g id="text_15">
      <!-- 30 -->
      <g style="fill: #ffffff" transform="translate(25.541875 62.484094) scale(0.1 -0.1)">
       <use xlink:href="#FiraCodeNF-Reg-33"/>
       <use xlink:href="#FiraCodeNF-Reg-30" transform="translate(61.538452 0)"/>
      </g>
     </g>
    </g>
    <g id="ytick_8">
     <g id="line2d_15">
      <g>
       <use xlink:href="#mc96200351e" x="44.85125" y="27.468943" style="fill: #ffffff; stroke: #ffffff; stroke-width: 0.8"/>
      </g>
     </g>
     <g id="text_16">
      <!-- 35 -->
      <g style="fill: #ffffff" transform="translate(25.541875 31.256443) scale(0.1 -0.1)">
       <use xlink:href="#FiraCodeNF-Reg-33"/>
       <use xlink:href="#FiraCodeNF-Reg-35" transform="translate(61.538452 0)"/>
      </g>
     </g>
    </g>
    <g id="text_17">
     <!-- Proportion of Papers [%] -->
     <g style="fill: #ffffff" transform="translate(19.366875 209.9675) rotate(-90) scale(0.1 -0.1)">
      <defs>
       <path id="FiraCodeNF-Reg-50" d="M 3656 3131 
Q 3656 2603 3431 2284 
Q 3207 1966 2813 1821 
Q 2419 1677 1907 1677 
L 1329 1677 
L 1329 0 
L 758 0 
L 758 4519 
L 1913 4519 
Q 2721 4519 3188 4181 
Q 3656 3843 3656 3131 
z
M 3046 3125 
Q 3046 3472 2908 3679 
Q 2770 3886 2529 3976 
Q 2288 4066 1982 4066 
L 1329 4066 
L 1329 2137 
L 1959 2137 
Q 2275 2137 2521 2222 
Q 2767 2307 2906 2522 
Q 3046 2737 3046 3125 
z
" transform="scale(0.015625)"/>
       <path id="FiraCodeNF-Reg-72" d="M 693 0 
L 693 423 
L 1231 423 
L 1231 3033 
L 693 3033 
L 693 3456 
L 1651 3456 
L 1753 2639 
Q 1953 3065 2238 3298 
Q 2524 3531 2993 3531 
Q 3138 3531 3251 3510 
Q 3364 3489 3482 3456 
L 3404 2288 
L 2951 2288 
L 2951 3023 
Q 2937 3023 2921 3023 
Q 2127 3023 1782 1887 
L 1782 423 
L 2485 423 
L 2485 0 
L 693 0 
z
" transform="scale(0.015625)"/>
       <path id="FiraCodeNF-Reg-70" d="M 2206 3528 
Q 2665 3528 2939 3305 
Q 3213 3082 3334 2676 
Q 3456 2271 3456 1730 
Q 3456 1208 3310 799 
Q 3164 391 2868 158 
Q 2573 -75 2124 -75 
Q 1556 -75 1211 325 
L 1211 -1323 
L 660 -1392 
L 660 3456 
L 1129 3456 
L 1175 2974 
Q 1365 3239 1628 3383 
Q 1891 3528 2206 3528 
z
M 2074 3085 
Q 1789 3085 1569 2913 
Q 1349 2741 1211 2530 
L 1211 817 
Q 1346 617 1551 500 
Q 1756 384 2002 384 
Q 2432 384 2648 712 
Q 2865 1040 2865 1733 
Q 2865 3085 2074 3085 
z
" transform="scale(0.015625)"/>
       <path id="FiraCodeNF-Reg-66" d="M 2701 4917 
Q 2980 4917 3206 4867 
Q 3433 4818 3637 4729 
L 3459 4319 
Q 3292 4391 3103 4427 
Q 2915 4464 2718 4464 
Q 1992 4464 1992 3889 
L 1992 3187 
L 3164 3187 
L 3105 2754 
L 1992 2754 
L 1992 0 
L 1441 0 
L 1441 2754 
L 617 2754 
L 617 3187 
L 1441 3187 
L 1441 3876 
Q 1441 4198 1606 4431 
Q 1772 4664 2057 4790 
Q 2343 4917 2701 4917 
z
" transform="scale(0.015625)"/>
       <path id="FiraCodeNF-Reg-65" d="M 1093 1533 
Q 1116 932 1409 658 
Q 1703 384 2104 384 
Q 2370 384 2583 463 
Q 2796 542 3026 696 
L 3285 331 
Q 3046 141 2734 33 
Q 2422 -75 2097 -75 
Q 1592 -75 1239 151 
Q 886 377 700 782 
Q 515 1188 515 1723 
Q 515 2248 700 2655 
Q 886 3062 1226 3295 
Q 1566 3528 2025 3528 
Q 2678 3528 3054 3075 
Q 3430 2622 3430 1835 
Q 3430 1746 3425 1667 
Q 3420 1589 3417 1533 
L 1093 1533 
z
M 2032 3075 
Q 1648 3075 1388 2802 
Q 1129 2530 1096 1959 
L 2898 1959 
Q 2888 2514 2655 2794 
Q 2422 3075 2032 3075 
z
" transform="scale(0.015625)"/>
       <path id="FiraCodeNF-Reg-73" d="M 1835 381 
Q 2235 381 2465 528 
Q 2695 676 2695 929 
Q 2695 1083 2637 1198 
Q 2580 1313 2402 1406 
Q 2225 1500 1858 1592 
Q 1500 1680 1236 1796 
Q 972 1913 825 2100 
Q 679 2288 679 2586 
Q 679 3023 1043 3275 
Q 1408 3528 1992 3528 
Q 2409 3528 2719 3416 
Q 3029 3305 3246 3147 
L 3003 2773 
Q 2809 2908 2571 2995 
Q 2334 3082 1999 3082 
Q 1592 3082 1421 2955 
Q 1251 2829 1251 2629 
Q 1251 2475 1334 2374 
Q 1418 2274 1618 2195 
Q 1818 2117 2169 2022 
Q 2508 1930 2760 1805 
Q 3013 1680 3152 1478 
Q 3292 1277 3292 955 
Q 3292 587 3082 359 
Q 2872 131 2539 28 
Q 2206 -75 1835 -75 
Q 1365 -75 1035 61 
Q 706 197 483 391 
L 798 755 
Q 1001 587 1265 484 
Q 1529 381 1835 381 
z
" transform="scale(0.015625)"/>
       <path id="FiraCodeNF-Reg-5b" d="M 1208 -758 
L 1208 5353 
L 2852 5353 
L 2852 4877 
L 1730 4877 
L 1730 -289 
L 2852 -289 
L 2852 -758 
L 1208 -758 
z
" transform="scale(0.015625)"/>
       <path id="FiraCodeNF-Reg-25" d="M 3312 4641 
L 3666 4411 
L 558 -131 
L 213 98 
L 3312 4641 
z
M 1090 4592 
Q 1398 4592 1611 4447 
Q 1825 4303 1938 4063 
Q 2051 3824 2051 3541 
Q 2051 3262 1938 3019 
Q 1825 2777 1611 2629 
Q 1398 2481 1090 2481 
Q 784 2481 567 2629 
Q 351 2777 236 3019 
Q 121 3262 121 3541 
Q 121 3827 236 4065 
Q 351 4303 567 4447 
Q 784 4592 1090 4592 
z
M 1090 4198 
Q 896 4198 761 4037 
Q 627 3876 627 3541 
Q 627 3220 758 3044 
Q 889 2869 1090 2869 
Q 1287 2869 1416 3029 
Q 1546 3190 1546 3541 
Q 1546 3896 1416 4047 
Q 1287 4198 1090 4198 
z
M 2862 2074 
Q 3171 2074 3384 1928 
Q 3597 1782 3710 1542 
Q 3824 1303 3824 1021 
Q 3824 742 3710 500 
Q 3597 259 3384 110 
Q 3171 -39 2862 -39 
Q 2557 -39 2340 110 
Q 2124 259 2009 500 
Q 1894 742 1894 1021 
Q 1894 1306 2009 1545 
Q 2124 1785 2340 1929 
Q 2557 2074 2862 2074 
z
M 2862 1677 
Q 2668 1677 2533 1521 
Q 2399 1365 2399 1021 
Q 2399 702 2530 525 
Q 2662 348 2862 348 
Q 3059 348 3188 509 
Q 3318 670 3318 1021 
Q 3318 1375 3188 1526 
Q 3059 1677 2862 1677 
z
" transform="scale(0.015625)"/>
       <path id="FiraCodeNF-Reg-5d" d="M 2731 5353 
L 2731 -758 
L 1086 -758 
L 1086 -292 
L 2209 -292 
L 2209 4877 
L 1086 4877 
L 1086 5353 
L 2731 5353 
z
" transform="scale(0.015625)"/>
      </defs>
      <use xlink:href="#FiraCodeNF-Reg-50"/>
      <use xlink:href="#FiraCodeNF-Reg-72" transform="translate(61.538452 0)"/>
      <use xlink:href="#FiraCodeNF-Reg-6f" transform="translate(123.076904 0)"/>
      <use xlink:href="#FiraCodeNF-Reg-70" transform="translate(184.615356 0)"/>
      <use xlink:href="#FiraCodeNF-Reg-6f" transform="translate(246.153809 0)"/>
      <use xlink:href="#FiraCodeNF-Reg-72" transform="translate(307.692261 0)"/>
      <use xlink:href="#FiraCodeNF-Reg-74" transform="translate(369.230713 0)"/>
      <use xlink:href="#FiraCodeNF-Reg-69" transform="translate(430.769165 0)"/>
      <use xlink:href="#FiraCodeNF-Reg-6f" transform="translate(492.307617 0)"/>
      <use xlink:href="#FiraCodeNF-Reg-6e" transform="translate(553.846069 0)"/>
      <use xlink:href="#FiraCodeNF-Reg-20" transform="translate(615.384521 0)"/>
      <use xlink:href="#FiraCodeNF-Reg-6f" transform="translate(676.922974 0)"/>
      <use xlink:href="#FiraCodeNF-Reg-66" transform="translate(738.461426 0)"/>
      <use xlink:href="#FiraCodeNF-Reg-20" transform="translate(799.999878 0)"/>
      <use xlink:href="#FiraCodeNF-Reg-50" transform="translate(861.53833 0)"/>
      <use xlink:href="#FiraCodeNF-Reg-61" transform="translate(923.076782 0)"/>
      <use xlink:href="#FiraCodeNF-Reg-70" transform="translate(984.615234 0)"/>
      <use xlink:href="#FiraCodeNF-Reg-65" transform="translate(1046.153687 0)"/>
      <use xlink:href="#FiraCodeNF-Reg-72" transform="translate(1107.692139 0)"/>
      <use xlink:href="#FiraCodeNF-Reg-73" transform="translate(1169.230591 0)"/>
      <use xlink:href="#FiraCodeNF-Reg-20" transform="translate(1230.769043 0)"/>
      <use xlink:href="#FiraCodeNF-Reg-5b" transform="translate(1292.307495 0)"/>
      <use xlink:href="#FiraCodeNF-Reg-25" transform="translate(1353.845947 0)"/>
      <use xlink:href="#FiraCodeNF-Reg-5d" transform="translate(1415.384399 0)"/>
     </g>
    </g>
   </g>
   <g id="patch_10">
    <path d="M 44.85125 246.0625 
L 44.85125 26.16 
" style="fill: none; stroke: #ffffff; stroke-width: 0.8; stroke-linejoin: miter; stroke-linecap: square"/>
   </g>
   <g id="patch_11">
    <path d="M 277.2 246.0625 
L 277.2 26.16 
" style="fill: none; stroke: #ffffff; stroke-width: 0.8; stroke-linejoin: miter; stroke-linecap: square"/>
   </g>
   <g id="patch_12">
    <path d="M 44.85125 246.0625 
L 277.2 246.0625 
" style="fill: none; stroke: #ffffff; stroke-width: 0.8; stroke-linejoin: miter; stroke-linecap: square"/>
   </g>
   <g id="patch_13">
    <path d="M 44.85125 26.16 
L 277.2 26.16 
" style="fill: none; stroke: #ffffff; stroke-width: 0.8; stroke-linejoin: miter; stroke-linecap: square"/>
   </g>
   <g id="text_18">
    <!-- Distribution of Citations -->
    <g style="fill: #ffffff" transform="translate(68.705313 20.16) scale(0.12 -0.12)">
     <defs>
      <path id="FiraCodeNF-Reg-44" d="M 3627 2281 
Q 3627 1572 3443 1124 
Q 3259 676 2957 431 
Q 2655 187 2295 93 
Q 1936 0 1585 0 
L 548 0 
L 548 4519 
L 1513 4519 
Q 1910 4519 2286 4430 
Q 2662 4342 2965 4104 
Q 3269 3866 3448 3426 
Q 3627 2987 3627 2281 
z
M 3020 2281 
Q 3020 2872 2895 3226 
Q 2770 3581 2566 3758 
Q 2363 3935 2122 3994 
Q 1881 4053 1648 4053 
L 1116 4053 
L 1116 456 
L 1654 456 
Q 1897 456 2140 533 
Q 2383 610 2581 807 
Q 2780 1004 2900 1362 
Q 3020 1720 3020 2281 
z
" transform="scale(0.015625)"/>
      <path id="FiraCodeNF-Reg-62" d="M 1211 3006 
Q 1398 3256 1649 3392 
Q 1900 3528 2196 3528 
Q 2659 3528 2944 3305 
Q 3230 3082 3361 2676 
Q 3492 2271 3492 1730 
Q 3492 1208 3336 799 
Q 3180 391 2875 158 
Q 2570 -75 2124 -75 
Q 1523 -75 1182 358 
L 1142 0 
L 660 0 
L 660 4848 
L 1211 4917 
L 1211 3006 
z
M 1992 371 
Q 2425 371 2658 705 
Q 2892 1040 2892 1733 
Q 2892 3085 2078 3085 
Q 1789 3085 1569 2913 
Q 1349 2741 1211 2530 
L 1211 817 
Q 1346 610 1551 490 
Q 1756 371 1992 371 
z
" transform="scale(0.015625)"/>
     </defs>
     <use xlink:href="#FiraCodeNF-Reg-44"/>
     <use xlink:href="#FiraCodeNF-Reg-69" transform="translate(61.538452 0)"/>
     <use xlink:href="#FiraCodeNF-Reg-73" transform="translate(123.076904 0)"/>
     <use xlink:href="#FiraCodeNF-Reg-74" transform="translate(184.615356 0)"/>
     <use xlink:href="#FiraCodeNF-Reg-72" transform="translate(246.153809 0)"/>
     <use xlink:href="#FiraCodeNF-Reg-69" transform="translate(307.692261 0)"/>
     <use xlink:href="#FiraCodeNF-Reg-62" transform="translate(369.230713 0)"/>
     <use xlink:href="#FiraCodeNF-Reg-75" transform="translate(430.769165 0)"/>
     <use xlink:href="#FiraCodeNF-Reg-74" transform="translate(492.307617 0)"/>
     <use xlink:href="#FiraCodeNF-Reg-69" transform="translate(553.846069 0)"/>
     <use xlink:href="#FiraCodeNF-Reg-6f" transform="translate(615.384521 0)"/>
     <use xlink:href="#FiraCodeNF-Reg-6e" transform="translate(676.922974 0)"/>
     <use xlink:href="#FiraCodeNF-Reg-20" transform="translate(738.461426 0)"/>
     <use xlink:href="#FiraCodeNF-Reg-6f" transform="translate(799.999878 0)"/>
     <use xlink:href="#FiraCodeNF-Reg-66" transform="translate(861.53833 0)"/>
     <use xlink:href="#FiraCodeNF-Reg-20" transform="translate(923.076782 0)"/>
     <use xlink:href="#FiraCodeNF-Reg-43" transform="translate(984.615234 0)"/>
     <use xlink:href="#FiraCodeNF-Reg-69" transform="translate(1046.153687 0)"/>
     <use xlink:href="#FiraCodeNF-Reg-74" transform="translate(1107.692139 0)"/>
     <use xlink:href="#FiraCodeNF-Reg-61" transform="translate(1169.230591 0)"/>
     <use xlink:href="#FiraCodeNF-Reg-74" transform="translate(1230.769043 0)"/>
     <use xlink:href="#FiraCodeNF-Reg-69" transform="translate(1292.307495 0)"/>
     <use xlink:href="#FiraCodeNF-Reg-6f" transform="translate(1353.845947 0)"/>
     <use xlink:href="#FiraCodeNF-Reg-6e" transform="translate(1415.384399 0)"/>
     <use xlink:href="#FiraCodeNF-Reg-73" transform="translate(1476.922852 0)"/>
    </g>
   </g>
  </g>
 </g>
 <defs>
  <clipPath id="p363de801b7">
   <rect x="44.85125" y="26.16" width="232.34875" height="219.9025"/>
  </clipPath>
 </defs>
</svg>
